<svg xmlns="http://www.w3.org/2000/svg" viewBox="0 0 45 55"><path d="m1149.62 2737.83c-1.52-7.61 5.73-12.08 5.73-12.08a13.888 13.888 0 0 0 -7.57 -5.12c-4.75-1.05-7.12.26-9.49 1.25a10.646 10.646 0 0 1 -3.56 .98c-3.42 0-5.92-3.61-12.45-1.97-4.49 1.13-9.22 6.31-10.07 12.48s.99 14.05 4.54 20.16 7.18 8.4 9.75 8.47 5.14-1.84 8.23-2.3 5 1.12 8.04 1.97 4.09.06 7.57-2.89c3.5-2.96 6.66-11.43 6.66-11.43s-5.87-1.9-7.38-9.52m-6.72-22.13c3.36-3.41 2.22-8.7 2.22-8.7a16.133 16.133 0 0 0 -7.88 4.11c-3.16 3.28-2.64 8.47-2.64 8.47a14.854 14.854 0 0 0 8.3 -3.88" transform="translate(-1112-2707)" fill="#fff" fill-rule="evenodd"/></svg>