<svg xmlns="http://www.w3.org/2000/svg" viewBox="0 0 61 45"><path d="M630.667 6099.34a2.37 2.37 0 1 1 -2.35 2.37A2.36 2.36 0 0 1 630.667 6099.34m5.755 10.62a4.5 4.5 0 0 0 -3.156 -4.24l-2.6 1.98-2.6-1.98a4.5 4.5 0 0 0 -3.157 4.24h11.51m4.697-15.96H620v21.32h21.12V6094m-1.907 19.39h-17.3v-17.47h17.3v17.47m6.6-14.39h32.844v1.92H645.81V6099m.002 7.06h28.15v1.93H645.81v-1.93m24.749 16.96a2.375 2.375 0 1 1 -2.351 2.37A2.359 2.359 0 0 1 670.554 6123.02m2.602 6.38l-2.6 1.98-2.6-1.98a4.5 4.5 0 0 0 -3.157 4.24h11.51A4.5 4.5 0 0 0 673.15 6129.4m-13.26 9.6H681v-21.32H659.88V6139m1.913-19.39h17.3v17.47h-17.3v-17.47m-39.444 5.4h32.844v1.93H622.35v-1.93m4.699 7.11h28.15v1.92H627.04v-1.92" transform="translate(-620-6094)" fill="#919a9f" fill-rule="evenodd"/></svg>