<svg xmlns="http://www.w3.org/2000/svg" viewBox="0 0 61 61"><path d="M650.5,6086a15.114,15.114,0,0,0-15.17,15.18c0,7.27,11.41,22.72,14.392,26.74a0.847,0.847,0,0,0,1.426,0c2.982-3.89,14.392-19.47,14.392-26.74A14.923,14.923,0,0,0,650.5,6086Zm0,24.79a9.735,9.735,0,1,1,9.724-9.74A9.715,9.715,0,0,1,650.5,6110.79Zm30.47,34.91-7.132-32.32a2.619,2.619,0,0,0-2.463-2.07H668a2.309,2.309,0,0,0-2.075,1.3,126.554,126.554,0,0,1-11.41,17.39,5.438,5.438,0,0,1-3.241,2.07,4.7,4.7,0,0,1-4.408-1.81,137.111,137.111,0,0,1-11.54-17.52,2.309,2.309,0,0,0-2.075-1.3h-3.5a2.489,2.489,0,0,0-2.464,2.07l-7.261,32.19a1.108,1.108,0,0,0,1.815,1.04l9.466-9.48a6.111,6.111,0,0,1,8.557,0l6.353,6.36a6.094,6.094,0,0,0,8.558,0l6.353-6.36a6.111,6.111,0,0,1,8.557,0l9.465,9.48A1.108,1.108,0,0,0,680.97,6145.7Z" transform="translate(-620-6086)" fill="#919a9f" fill-rule="evenodd"/></svg>