<svg xmlns="http://www.w3.org/2000/svg" viewBox="0 0 61 48"><path d="m667.21 6093.19l-43.666 12.61a4.893 4.893 0 0 0 -3.348 6.06l7.5 25.62a4.927 4.927 0 0 0 6.093 3.33l43.666-12.61a4.893 4.893 0 0 0 3.348 -6.06l-7.5-25.62a4.927 4.927 0 0 0 -6.093 -3.33m4.069 3.91l1.569 5.36-23.527 6.8a21.014 21.014 0 0 0 -1.936 -4.62s-4.658 1-6.727 3.41l-1.352-4.62 28.492-8.23a2.82 2.82 0 0 1 3.481 1.9m-47.15 10.71l10.622-3.06 1.438 4.91c-3.131-.21-6.925 2.36-6.925 2.36a17.2 17.2 0 0 0 .985 2.74l-6.465 1.87-1.568-5.36a2.791 2.791 0 0 1 1.913 -3.46m5.586 29.09l-4.607-15.75 10.416-3a58.893 58.893 0 0 1 -2.208 5.48l3.145 5.68s1.5-4.29 2.878-8.89l4.479 15.31-10.622 3.07a2.82 2.82 0 0 1 -3.481 -1.9m47.15-10.71l-28.492 8.23-5.05-17.25c4.634 3.67 10.207 7.63 10.207 7.63l-1.221-6.36c-2.1-1.39-3.793-2.61-5.149-3.66l27.01-7.8 4.608 15.75a2.792 2.792 0 0 1 -1.914 3.46" transform="translate(-620-6093)" fill="#919a9f" fill-rule="evenodd"/></svg>